<svg width="21" height="21" viewBox="0 0 21 21" fill="none" xmlns="http://www.w3.org/2000/svg">
<g clip-path="url(#clip0_9_8265)">
<path d="M19.1663 3.95C19.1628 3.916 19.1568 3.884 19.1463 3.851C19.1358 3.818 19.1223 3.7885 19.1058 3.759C19.0973 3.744 19.0953 3.7265 19.0848 3.712C19.0763 3.7005 19.0638 3.6945 19.0548 3.6835C19.0328 3.657 19.0078 3.635 18.9803 3.6135C18.9553 3.594 18.9313 3.576 18.9038 3.562C18.8758 3.5475 18.8468 3.538 18.8158 3.5285C18.7828 3.519 18.7513 3.5115 18.7173 3.5085C18.7028 3.5075 18.6908 3.5 18.6758 3.5H1.67628C1.66178 3.5 1.64928 3.507 1.63478 3.5085C1.60078 3.5115 1.56878 3.5185 1.53628 3.5285C1.50528 3.5375 1.47628 3.547 1.44828 3.562C1.42078 3.576 1.39678 3.594 1.37178 3.6135C1.34428 3.635 1.31978 3.657 1.29728 3.684C1.28828 3.695 1.27578 3.7005 1.26728 3.7125C1.25678 3.727 1.25528 3.744 1.24628 3.7595C1.22978 3.789 1.21628 3.819 1.20578 3.8515C1.19528 3.8845 1.18928 3.9165 1.18578 3.95C1.18428 3.9675 1.17578 3.9825 1.17578 4.0005V16.5005C1.17578 16.7765 1.39978 17.0005 1.67578 17.0005H18.6758C18.9518 17.0005 19.1758 16.7765 19.1758 16.5005V4.0005C19.1758 3.9825 19.1678 3.9675 19.1663 3.95ZM17.1013 4.5005L10.1768 9.3885L3.25178 4.5005H17.1013ZM2.17628 16.0005V4.9655L9.88778 10.409C9.97428 10.47 10.0753 10.5005 10.1763 10.5005C10.2773 10.5005 10.3783 10.47 10.4648 10.409L18.1763 4.9655V16.0005H2.17628Z" fill="white"/>
</g>
<defs>
<clipPath id="clip0_9_8265">
<rect width="20" height="20" fill="white" transform="translate(0.175781 0.25)"/>
</clipPath>
</defs>
</svg>
