<svg width="114" height="39" viewBox="0 0 114 39" fill="none" xmlns="http://www.w3.org/2000/svg">
<g clip-path="url(#clip0_9_8248)">
<path d="M31.9683 5.65766C25.1205 -1.46907 13.5344 -0.966328 6.0907 6.78192C-1.35298 14.5292 -1.83631 26.5885 5.0115 33.7162C11.8593 40.8438 23.4454 40.3402 30.8891 32.5928C38.3328 24.8446 38.8161 12.7853 31.9683 5.65766ZM23.9057 23.1927C18.9958 31.5579 12.5926 36.7676 9.60223 34.8294C6.61277 32.8912 8.16884 24.538 13.0787 16.1728C17.9886 7.80766 24.3927 2.59796 27.3822 4.53617C30.3717 6.47438 28.8156 14.8276 23.9057 23.1927Z" fill="white"/>
<path d="M68.4569 0.25C67.6766 2.46352 66.768 4.75807 65.7349 7.08485C59.9267 20.1662 52.4572 29.267 49.0508 27.4126C45.6444 25.5582 47.5916 13.4501 53.3998 0.3697C53.4174 0.329186 53.4358 0.290514 53.4543 0.25H32.7891L49.1504 33.8948C51.33 38.3771 57.7277 38.3771 59.9073 33.8948L76.2686 0.25H68.4569Z" fill="white"/>
<path d="M106.782 2.97271C100.416 16.3763 92.507 25.9412 89.1144 24.3363C85.9848 22.8557 87.7963 12.3857 93.0918 0.25H79.315L74.8857 9.25509C71.1011 16.9509 76.712 25.9412 85.3004 25.9412H113.175V0.25H108.027C107.63 1.15051 107.216 2.05839 106.782 2.97271Z" fill="white"/>
</g>
<defs>
<clipPath id="clip0_9_8248">
<rect width="113" height="38.5" fill="white" transform="translate(0.175781 0.25)"/>
</clipPath>
</defs>
</svg>
