<svg width="21" height="21" viewBox="0 0 21 21" fill="none" xmlns="http://www.w3.org/2000/svg">
<g clip-path="url(#clip0_9_8275)">
<path d="M15.0804 2.59508C16.5962 2.59508 17.8294 3.82827 17.8294 5.34407V15.1507C17.8294 16.6665 16.5962 17.8997 15.0804 17.8997H5.27376C3.75795 17.8997 2.52477 16.6665 2.52477 15.1507V5.34407C2.52477 3.82827 3.75795 2.59508 5.27376 2.59508H15.0804ZM15.0804 1.91406H5.27376C3.37944 1.91406 1.84375 3.44976 1.84375 5.34407V15.1507C1.84375 17.0451 3.37944 18.5807 5.27376 18.5807H15.0804C16.9748 18.5807 18.5104 17.045 18.5104 15.1507V5.34407C18.5104 3.44971 16.9748 1.91406 15.0804 1.91406Z" fill="white"/>
<path d="M4.88672 6.71094H7.63344C8.17717 6.71094 8.5826 6.73359 8.84978 6.7789C9.11697 6.82421 9.35601 6.91874 9.56694 7.06248C9.77787 7.20622 9.95362 7.39763 10.0943 7.63667C10.2349 7.8757 10.3052 8.14366 10.3052 8.44054C10.3052 8.76239 10.2185 9.05768 10.0451 9.32645C9.87163 9.59518 9.63649 9.79676 9.33962 9.9311C9.75835 10.053 10.0802 10.2608 10.3052 10.5545C10.5302 10.8483 10.6427 11.1935 10.6427 11.5904C10.6427 11.9029 10.57 12.2067 10.4247 12.502C10.2794 12.7973 10.081 13.0333 9.8294 13.2098C9.57784 13.3864 9.2677 13.495 8.899 13.5356C8.66777 13.5606 8.10997 13.5762 7.22565 13.5824H4.88672V6.71094ZM6.27413 7.85464V9.44363H7.18347C7.72406 9.44363 8.05999 9.43582 8.19124 9.4202C8.42873 9.3921 8.61542 9.31006 8.75135 9.17413C8.88729 9.0382 8.95525 8.85932 8.95525 8.63744C8.95525 8.42497 8.89664 8.25231 8.77946 8.11951C8.66228 7.98671 8.48807 7.90621 8.25684 7.87811C8.11937 7.86249 7.72406 7.85468 7.07097 7.85468H6.27413V7.85464ZM6.27413 10.5873V12.4248H7.55844C8.0584 12.4248 8.37557 12.4107 8.50996 12.3826C8.71621 12.3451 8.88415 12.2537 9.01386 12.1084C9.14353 11.9631 9.20836 11.7685 9.20836 11.5248C9.20836 11.3185 9.15838 11.1435 9.05836 10.9998C8.95834 10.8561 8.81383 10.7514 8.62478 10.6858C8.43573 10.6202 8.02557 10.5873 7.39436 10.5873H6.27413Z" fill="white"/>
<path d="M14.1186 11.9983L15.431 12.2186C15.2623 12.6998 14.9959 13.0662 14.6318 13.3177C14.2678 13.5693 13.8124 13.6951 13.2655 13.6951C12.3999 13.6951 11.7593 13.4123 11.3437 12.8467C11.0156 12.3936 10.8516 11.8217 10.8516 11.1311C10.8516 10.3061 11.0672 9.66009 11.4984 9.19295C11.9296 8.72578 12.4749 8.49219 13.1342 8.49219C13.8748 8.49219 14.4592 8.73672 14.8873 9.22573C15.3154 9.71479 15.5201 10.464 15.5013 11.4733H12.2015C12.2108 11.8639 12.3171 12.1678 12.5202 12.3849C12.7233 12.6021 12.9764 12.7107 13.2795 12.7107C13.4858 12.7107 13.6592 12.6544 13.7998 12.5419C13.9404 12.4294 14.0467 12.2482 14.1185 11.9982L14.1186 11.9983ZM14.1936 10.6671C14.1842 10.2859 14.0858 9.99605 13.8983 9.79765C13.7108 9.5992 13.4827 9.5 13.214 9.5C12.9265 9.5 12.689 9.6047 12.5015 9.81404C12.314 10.0234 12.2218 10.3078 12.2249 10.6671H14.1936Z" fill="white"/>
<path d="M14.5377 7.17969H11.8164V8.07963H14.5377V7.17969Z" fill="white"/>
</g>
<rect x="2.34375" y="2.41406" width="15.6667" height="15.6667" rx="3.5" stroke="white"/>
<defs>
<clipPath id="clip0_9_8275">
<rect x="1.84375" y="1.91406" width="16.6667" height="16.6667" rx="4" fill="white"/>
</clipPath>
</defs>
</svg>
