<svg width="21" height="21" viewBox="0 0 21 21" fill="none" xmlns="http://www.w3.org/2000/svg">
<path d="M9.64633 2.89105L3.75996 7.17186C3.39278 7.4385 3.17578 7.8655 3.17578 8.31923V17.1424C3.17578 17.4937 3.46087 17.7788 3.81214 17.7788H16.5394C16.8907 17.7788 17.1758 17.4937 17.1758 17.1424V8.31923C17.1758 7.8655 16.9588 7.43914 16.5916 7.17186L10.7052 2.89105C10.3896 2.66132 9.96196 2.66132 9.64633 2.89105ZM15.9031 16.506H10.8121V12.6879H9.53942V16.506H4.44851V8.96704C4.44851 8.51332 4.66551 8.08695 5.03269 7.81968L9.64633 4.46414C9.96196 4.23441 10.3896 4.23441 10.7052 4.46414L15.3189 7.81968C15.6861 8.08632 15.9031 8.51332 15.9031 8.96704V16.506Z" fill="white"/>
</svg>
