<svg width="657" height="222" viewBox="0 0 657 222" fill="none" xmlns="http://www.w3.org/2000/svg">
<g clip-path="url(#clip0_1_1408)">
<path d="M184.848 31.4654C145.034 -9.44682 77.673 -6.56038 34.3913 37.9152C-8.88917 82.3908 -11.6983 151.611 28.1157 192.524C67.9298 233.438 135.291 230.55 178.573 186.075C221.852 141.599 224.662 72.3789 184.848 31.4654ZM137.974 132.123C109.429 180.142 72.1962 210.048 54.8115 198.922C37.4294 187.796 46.478 139.85 75.0259 91.831C103.571 43.8123 140.805 13.9059 158.189 25.0321C175.572 36.1582 166.522 84.1047 137.974 132.123Z" fill="white"/>
<path d="M396.995 0.417283C392.457 13.1217 387.176 26.2926 381.168 39.6499C347.399 114.739 303.97 166.982 284.166 156.336C264.361 145.692 275.683 76.19 309.45 1.10182C309.554 0.871103 309.661 0.646728 309.764 0.416016H189.613L284.742 193.547C297.415 219.278 334.612 219.278 347.285 193.547L442.415 0.417283H396.995Z" fill="white"/>
<path d="M619.83 16.0471C582.823 92.9886 536.833 147.892 517.11 138.677C498.916 130.178 509.446 70.0796 540.233 0.416992H460.131L434.378 52.1081C412.372 96.282 444.998 147.891 494.93 147.891H657V0.416992H627.069C624.762 5.58394 622.355 10.7965 619.83 16.0471Z" fill="white"/>
<g clip-path="url(#clip1_1_1408)">
<path d="M184.848 31.4654C145.034 -9.44682 77.673 -6.56038 34.3913 37.9152C-8.88917 82.3908 -11.6983 151.611 28.1157 192.524C67.9298 233.438 135.291 230.55 178.573 186.075C221.852 141.599 224.662 72.3789 184.848 31.4654ZM137.974 132.123C109.429 180.142 72.1962 210.048 54.8115 198.922C37.4294 187.796 46.478 139.85 75.0259 91.831C103.571 43.8123 140.805 13.9059 158.189 25.0321C175.572 36.1582 166.522 84.1047 137.974 132.123Z" fill="white"/>
<path d="M396.995 0.417283C392.457 13.1217 387.176 26.2926 381.168 39.6499C347.399 114.739 303.97 166.982 284.166 156.336C264.361 145.692 275.683 76.19 309.45 1.10182C309.554 0.871103 309.661 0.646728 309.764 0.416016H189.613L284.742 193.547C297.415 219.278 334.612 219.278 347.285 193.547L442.415 0.417283H396.995Z" fill="white"/>
<path d="M619.83 16.0471C582.823 92.9886 536.833 147.892 517.11 138.677C498.916 130.178 509.446 70.0796 540.233 0.416992H460.131L434.378 52.1081C412.372 96.2819 444.998 147.891 494.93 147.891H657V0.416992H627.069C624.762 5.58394 622.355 10.7965 619.83 16.0471Z" fill="white"/>
</g>
</g>
<defs>
<clipPath id="clip0_1_1408">
<rect width="657" height="221" fill="white" transform="translate(0 0.416992)"/>
</clipPath>
<clipPath id="clip1_1_1408">
<rect width="657" height="221" fill="white" transform="translate(0 0.416992)"/>
</clipPath>
</defs>
</svg>
